<?xml version="1.0" encoding="UTF-8"?>
<svg version="1.1" xmlns="http://www.w3.org/2000/svg" width="456" height="488" viewBox="273 167 456 488">

<path d="M0 0 C1.31733627 -0.00570007 2.63467255 -0.01140015 3.9919281 -0.01727295 C6.77286147 -0.02770049 9.55376672 -0.03359406 12.3347168 -0.03710938 C15.1239153 -0.04145392 17.91279746 -0.055204 20.7019043 -0.078125 C59.85101379 -0.39309749 99.58865636 4.24306246 136.99609375 16.203125 C138.09421387 16.55149414 139.19233398 16.89986328 140.32373047 17.25878906 C156.58620988 22.44944867 172.45816935 28.0841687 187.99609375 35.203125 C189.50758182 35.87812095 191.01929617 36.55261048 192.53125 37.2265625 C199.68356962 40.45746257 206.60866752 43.96574451 213.37109375 47.953125 C213.99612793 48.31792969 214.62116211 48.68273437 215.26513672 49.05859375 C218.55114541 51.05598951 221.14067304 52.7952094 222.99609375 56.203125 C223.88716669 60.49887506 224.13164488 64.60522268 224.15722656 68.98583984 C224.16219147 69.63757172 224.16715637 70.28930359 224.17227173 70.96078491 C224.18682926 73.1118886 224.1936977 75.26291764 224.19921875 77.4140625 C224.20204613 78.16296375 224.2048735 78.91186501 224.20778656 79.68346024 C224.22278074 83.675533 224.23199892 87.66756985 224.23632812 91.65966797 C224.24064735 94.89220885 224.25427727 98.12447291 224.27734375 101.35693359 C224.46821669 128.67081561 223.12331444 155.57672199 218.68359375 182.578125 C218.58071045 183.2196048 218.47782715 183.86108459 218.37182617 184.52200317 C214.92478107 205.94650886 210.65467259 228.30968407 202.140625 248.390625 C201.20446907 250.69107644 200.34176916 252.9899092 199.5078125 255.328125 C194.04914592 270.62912789 187.61428912 285.37869028 180.18359375 299.828125 C179.82281738 300.54500488 179.46204102 301.26188477 179.09033203 302.00048828 C177.01040405 305.94104854 176.1289438 307.13669998 171.99609375 309.203125 C166.38609375 303.593125 160.77609375 297.983125 154.99609375 292.203125 C156.30629595 288.27251841 157.52304503 284.88446516 159.28125 281.2109375 C175.10718014 247.71056258 186.38104812 212.86676681 191.99609375 176.203125 C192.14626953 175.24696289 192.29644531 174.29080078 192.45117188 173.30566406 C196.03891789 150.13011187 197.442831 126.89936681 197.58642578 103.4597168 C197.60985415 100.79432702 197.64709454 98.13378172 197.70947266 95.46948242 C197.800852 91.5643062 197.8270326 87.66013002 197.84765625 83.75390625 C197.90018051 81.96972038 197.90018051 81.96972038 197.95376587 80.14949036 C198.0974529 74.26036558 198.0974529 74.26036558 195.28897095 69.38827515 C193.23208295 68.07891956 191.25149429 67.12001473 188.99609375 66.203125 C187.74369579 65.54590346 186.49547133 64.88058863 185.25390625 64.203125 C163.19546072 53.33378531 139.59559647 44.20131362 115.59375 38.79736328 C113.02877218 38.2106005 110.48231775 37.57139934 107.93359375 36.91796875 C96.41438414 34.03680009 84.80055268 32.1422979 73.05859375 30.453125 C72.32241821 30.34612274 71.58624268 30.23912048 70.82775879 30.12887573 C53.93647136 27.69761122 37.23180241 26.99548359 20.18359375 27.015625 C18.7630368 27.01653137 18.7630368 27.01653137 17.31378174 27.01745605 C-6.49101714 27.05857749 -29.56614756 28.87316799 -53.00390625 33.203125 C-54.50800049 33.47962891 -54.50800049 33.47962891 -56.04248047 33.76171875 C-71.31992945 36.62701233 -86.18981812 40.50654094 -101.00390625 45.203125 C-101.85903809 45.47350586 -102.71416992 45.74388672 -103.59521484 46.02246094 C-114.00072597 49.36613944 -124.05335018 53.38902805 -134.06640625 57.765625 C-135.60059204 58.43609863 -135.60059204 58.43609863 -137.16577148 59.12011719 C-148.87566708 63.93373004 -148.87566708 63.93373004 -159.00390625 71.203125 C-159.31160381 74.04409213 -159.31160381 74.04409213 -159.26269531 77.41845703 C-159.26899963 78.72807404 -159.27530396 80.03769104 -159.28179932 81.38699341 C-159.27821445 82.82830945 -159.27411123 84.26962428 -159.26953125 85.7109375 C-159.27087971 87.19432641 -159.27282176 88.67771489 -159.27532959 90.16110229 C-159.27828514 93.28338798 -159.27397804 96.40555959 -159.26464844 99.52783203 C-159.25339209 103.48343346 -159.25972123 107.4387593 -159.27179337 111.39435005 C-159.27912004 114.46778324 -159.27667299 117.54115433 -159.27153778 120.61458969 C-159.27022359 122.06947743 -159.27176862 123.52437122 -159.27649689 124.97925186 C-159.29921348 133.953564 -158.74968631 142.63538459 -157.51141357 151.52780151 C-156.98884551 155.31219354 -156.57768263 159.09023395 -156.19140625 162.890625 C-153.83435199 183.66147407 -149.80784897 204.12882793 -144.00390625 224.203125 C-143.79797852 224.92709473 -143.59205078 225.65106445 -143.37988281 226.39697266 C-126.97058211 283.55649181 -93.36225021 337.49012615 -48.00390625 376.203125 C-47.09253906 377.00363281 -46.18117188 377.80414062 -45.2421875 378.62890625 C-36.27401741 386.44487054 -26.75497729 393.39939311 -17.00390625 400.203125 C-16.35663574 400.65574707 -15.70936523 401.10836914 -15.04248047 401.57470703 C-7.50638771 406.80970276 0.24636407 411.68186881 8.12109375 416.390625 C9.33043579 417.1323999 9.33043579 417.1323999 10.56420898 417.88916016 C14.82518434 420.4567192 14.82518434 420.4567192 19.625 421.2265625 C22.79113305 419.85996142 25.81767567 418.35032384 28.80859375 416.640625 C29.48510986 416.25640381 30.16162598 415.87218262 30.85864258 415.47631836 C46.2465257 406.54784078 61.21924341 396.46994644 74.99609375 385.203125 C76.01960938 384.38199219 77.043125 383.56085938 78.09765625 382.71484375 C90.06843421 372.96196004 100.9608455 361.92384497 110.99609375 350.203125 C115.09281706 350.89261032 116.74261556 351.48964365 119.37109375 354.765625 C119.95761719 355.47847656 120.54414062 356.19132812 121.1484375 356.92578125 C122.06302734 358.05306641 122.06302734 358.05306641 122.99609375 359.203125 C124.30263324 360.70831961 125.61488104 362.20858392 126.93359375 363.703125 C127.95442708 364.86979167 128.97526042 366.03645833 129.99609375 367.203125 C128.54661362 371.82440872 125.89649118 374.88426671 122.62109375 378.328125 C122.08943604 378.8943457 121.55777832 379.46056641 121.01000977 380.04394531 C112.32482539 389.18301464 102.85624958 397.35497394 92.99609375 405.203125 C91.92835531 406.06376473 90.8606482 406.92444334 89.79296875 407.78515625 C72.59044644 421.56709019 54.34416022 433.40019536 35.18359375 444.265625 C34.53189209 444.63582764 33.88019043 445.00603027 33.20874023 445.38745117 C27.1429939 448.77875118 22.0778826 451.24936227 14.99609375 450.203125 C-11.62070577 440.6584452 -36.5711904 421.24535472 -58.00390625 403.203125 C-58.9990625 402.39359375 -59.99421875 401.5840625 -61.01953125 400.75 C-68.85674519 394.297913 -76.12409949 387.29637582 -83.31640625 380.140625 C-84.69469604 378.77611206 -84.69469604 378.77611206 -86.10083008 377.3840332 C-92.16157017 371.29593086 -97.64298794 364.90921838 -103.00390625 358.203125 C-104.5634081 356.3880447 -106.12524437 354.57496174 -107.69140625 352.765625 C-147.41843476 304.93354585 -170.13908569 244.8278071 -181.00390625 184.203125 C-181.19942581 183.12109802 -181.19942581 183.12109802 -181.39889526 182.01721191 C-183.32178804 171.27963606 -184.80426231 160.57579963 -185.69140625 149.703125 C-185.7546106 148.94597198 -185.81781494 148.18881897 -185.88293457 147.40872192 C-187.07477491 132.65998146 -187.27224657 117.9320242 -187.25390625 103.140625 C-187.25274307 101.57078857 -187.25274307 101.57078857 -187.2515564 99.96923828 C-187.23665806 93.04552404 -187.15651885 86.12517547 -187.00390625 79.203125 C-186.9728479 77.78280975 -186.9728479 77.78280975 -186.94116211 76.33380127 C-186.87155534 73.60303319 -186.77868615 70.87422844 -186.67578125 68.14453125 C-186.65429016 67.34135971 -186.63279907 66.53818817 -186.61065674 65.7106781 C-186.35879418 60.15404374 -185.63850328 54.71562308 -181.40771484 50.6809082 C-180.82844238 50.37499756 -180.24916992 50.06908691 -179.65234375 49.75390625 C-178.97953369 49.38716797 -178.30672363 49.02042969 -177.61352539 48.64257812 C-176.87610107 48.27068359 -176.13867676 47.89878906 -175.37890625 47.515625 C-174.59185303 47.10119141 -173.8047998 46.68675781 -172.99389648 46.25976562 C-170.34362322 44.88034629 -167.67575855 43.54022281 -165.00390625 42.203125 C-164.0607959 41.72149902 -163.11768555 41.23987305 -162.14599609 40.74365234 C-146.20794178 32.63314752 -129.94518815 25.9192664 -113.00390625 20.203125 C-111.95106445 19.84766602 -110.89822266 19.49220703 -109.81347656 19.12597656 C-74.88649191 7.57762554 -36.82398484 0.12708778 0 0 Z " fill="#143650" transform="translate(479.00390625,185.796875)"/>
<path d="M0 0 C21.47410989 18.40937354 37.72820932 41.83468465 44.00146484 69.71582031 C44.44425781 71.37097656 44.44425781 71.37097656 44.89599609 73.05957031 C52.2380523 103.3665055 44.82265801 136.71002083 29.93505859 163.56738281 C26.16883471 169.69986048 21.75626069 175.3354813 17.21240234 180.91113281 C15.72593002 182.68249888 15.72593002 182.68249888 16.37646484 185.02832031 C18.2788004 188.17449065 20.53718356 190.4137598 23.18896484 192.93847656 C24.86404459 194.58106554 26.34346513 196.26582513 27.81396484 198.09082031 C31.07011623 201.99820198 33.14970187 201.84652018 38.06396484 202.34082031 C45.15843825 203.42329211 48.92765023 205.78294499 54.00146484 210.71582031 C54.90896484 211.58207031 55.81646484 212.44832031 56.75146484 213.34082031 C61.40318676 217.85540046 65.78985339 222.55436339 69.99365234 227.48925781 C73.22219907 231.06955282 76.67257051 234.42885538 80.12011719 237.79736328 C82.93621937 240.56877907 85.61532055 243.39275742 88.18041992 246.39916992 C92.06011322 250.85384513 96.20275286 254.99247007 100.41943359 259.12597656 C102.01932973 260.70836897 103.6189304 262.29106017 105.21826172 263.87402344 C107.7100477 266.33480665 110.20408884 268.79316529 112.70336914 271.24633789 C115.13638248 273.63691356 117.5597554 276.03692976 119.98193359 278.43847656 C121.09921089 279.52782249 121.09921089 279.52782249 122.23905945 280.63917542 C127.34438503 285.71923021 131.54798261 290.20133297 132.50146484 297.59082031 C132.08884814 304.93255201 128.22391347 311.72043467 123.00146484 316.71582031 C116.94074514 320.93488485 111.37167224 322.28502538 104.05615234 322.47753906 C96.64747854 320.63010762 91.36692244 314.29215487 86.43896484 308.77832031 C80.87048725 302.67260711 75.14325926 296.77355059 69.23950195 290.99145508 C66.24000971 288.03427347 63.3690049 285.03175976 60.62255859 281.83691406 C56.6446481 277.22795953 52.34061986 272.98217071 48.00146484 268.71582031 C42.99996609 263.79823932 38.16277995 258.84163941 33.59179688 253.52001953 C31.33422153 250.9588464 28.90656401 248.63816406 26.43896484 246.27832031 C14.86337763 234.78997631 14.86337763 234.78997631 14.56396484 225.15332031 C14.3250015 218.06682128 11.97463522 215.43141613 7.00146484 210.71582031 C5.30552325 208.51931446 3.62240419 206.31652673 1.97021484 204.08691406 C-0.05228481 202.39662863 -0.05228481 202.39662863 -3.31494141 202.74316406 C-7.42486059 203.82839193 -9.97511889 205.38951107 -13.43603516 207.84082031 C-38.35581424 224.74572265 -72.68572201 231.99681199 -102.31103516 226.52832031 C-104.88232732 225.96274077 -107.44529964 225.35801342 -109.99853516 224.71582031 C-110.6769043 224.54953125 -111.35527344 224.38324219 -112.05419922 224.21191406 C-137.17947835 217.92768491 -156.90323007 204.95316076 -174.99853516 186.71582031 C-175.76552734 185.94625 -176.53251953 185.17667969 -177.32275391 184.38378906 C-188.35415657 172.80537469 -195.6827276 159.30751362 -201.99853516 144.71582031 C-202.50126953 143.60980469 -203.00400391 142.50378906 -203.52197266 141.36425781 C-212.84994052 118.31578696 -213.91704665 87.34999829 -205.99853516 63.71582031 C-205.7895459 63.05598145 -205.58055664 62.39614258 -205.36523438 61.71630859 C-195.05717869 29.64937581 -173.09019964 2.64042009 -143.49072266 -13.51074219 C-96.2966129 -37.47732589 -41.44487902 -34.25619164 0 0 Z M-150.99853516 22.71582031 C-151.50481445 23.1744043 -152.01109375 23.63298828 -152.53271484 24.10546875 C-169.99458815 40.11650392 -183.30531474 62.70927261 -184.90478516 86.82128906 C-184.93572266 87.77648437 -184.96666016 88.73167969 -184.99853516 89.71582031 C-185.02431641 90.37533691 -185.05009766 91.03485352 -185.07666016 91.71435547 C-186.01967322 118.74936111 -178.86077774 146.3596376 -160.06103516 166.65332031 C-158.07702403 168.71349549 -156.04899085 170.72201467 -153.99853516 172.71582031 C-152.74556641 173.96492188 -152.74556641 173.96492188 -151.46728516 175.23925781 C-131.36443381 194.36307419 -104.00112204 202.55694303 -76.75195312 202.23730469 C-48.69319553 201.35432276 -23.26181122 187.8872836 -4.05712891 167.68847656 C3.06172908 159.85039375 8.21706933 151.12045388 13.00146484 141.71582031 C13.44361328 140.85988281 13.88576172 140.00394531 14.34130859 139.12207031 C24.60874179 117.73481323 24.10009718 88.14902971 16.84033203 66.01904297 C14.4968883 59.58480312 11.43040089 53.62877706 8.00146484 47.71582031 C7.45748047 46.73484375 6.91349609 45.75386719 6.35302734 44.74316406 C-7.44924193 21.34663445 -32.10790575 4.90318103 -58.09033203 -1.82592773 C-65.46802112 -3.52155755 -72.70392766 -3.61634759 -80.24853516 -3.59667969 C-81.46927734 -3.61279297 -82.69001953 -3.62890625 -83.94775391 -3.64550781 C-108.27680269 -3.65838033 -133.00404325 6.30078224 -150.99853516 22.71582031 Z " fill="#133650" transform="translate(577.99853515625,283.2841796875)"/>


<path d="M0 0 C2.19502608 2.35603044 2.08072118 4.55368087 2.12890625 7.6796875 C1.34118132 10.69736904 0.06856744 11.8345406 -2.40234375 13.71484375 C-5.6171875 14.515625 -5.6171875 14.515625 -9.33984375 15.02734375 C-22.93743641 17.30800521 -34.12323988 24.85828774 -42.65234375 35.58984375 C-46.2807486 40.70168484 -48.85614692 46.34287944 -51.4609375 52.0234375 C-54.74866432 58.9954652 -54.74866432 58.9954652 -58.40234375 60.71484375 C-61.94756819 61.23185565 -63.69879647 61.140675 -66.77734375 59.27734375 C-69.30251659 55.29534042 -69.40021637 52.18410355 -68.40234375 47.71484375 C-60.57078222 27.08009247 -46.59783841 12.0356428 -27.140625 2.0390625 C-19.38284205 -1.3484073 -7.96395921 -4.26039444 0 0 Z " fill="#2B9DD6" transform="translate(494.40234375,312.28515625)"/>


</svg>
